 <svg  version="1.0" xmlns="http://www.w3.org/2000/svg"  width="450.000000pt" height="600.000000pt" viewBox="0 0 450.000000 600.000000"  preserveAspectRatio="xMidYMid meet">  <g transform="translate(0.000000,600.000000) scale(0.100000,-0.100000)" fill="#ec0404" stroke="none"> <path d="M0 5790 c0 -163 3 -209 12 -205 26 7 227 19 353 20 72 0 159 4 195 8 74 8 836 13 862 6 9 -3 25 -12 35 -21 10 -9 29 -19 43 -23 38 -10 68 -54 73 -110 2 -28 16 -81 30 -119 27 -71 27 -86 0 -86 -9 0 -13 -6 -10 -14 3 -8 0 -22 -7 -31 -11 -16 -15 -15 -51 10 -27 18 -47 24 -63 20 -14 -3 -21 -2 -18 4 5 7 -34 41 -48 41 -9 0 -37 -100 -31 -110 3 -5 1 -10 -5 -10 -20 0 -130 -116 -130 -136 0 -42 24 -69 65 -74 25 -3 41 -11 43 -20 4 -24 -36 -60 -67 -60 -26 0 -31 -6 -45 -50 -9 -28 -25 -64 -35 -82 -11 -17 -17 -37 -14 -45 3 -8 0 -13 -8 -11 -8 2 -14 -8 -15 -25 -2 -17 -16 -41 -33 -58 -31 -29 -35 -29 -32 4 1 9 -3 17 -8 17 -6 0 -10 -3 -9 -7 1 -5 -4 -19 -11 -31 -7 -13 -10 -26 -7 -29 12 -12 -48 -33 -94 -33 -27 0 -55 -6 -62 -12 -14 -14 -42 -17 -54 -5 -4 4 1 7 11 7 14 0 16 3 8 11 -7 7 -17 8 -30 1 -33 -18 -160 -3 -155 18 2 8 -3 10 -13 6 -9 -3 -19 -6 -21 -6 -2 0 -4 -8 -5 -17 0 -11 -3 -13 -6 -5 -2 6 -9 12 -14 12 -6 0 -7 -4 -4 -10 3 -5 2 -10 -4 -10 -5 0 -11 5 -13 12 -2 6 -12 9 -21 5 -10 -4 -14 -12 -11 -22 4 -8 -1 -17 -10 -21 -11 -4 -16 -19 -16 -49 0 -45 -20 -72 -42 -59 -10 6 -9 3 1 -9 7 -9 21 -17 31 -17 12 0 18 -8 18 -26 0 -18 -5 -24 -15 -20 -12 5 -14 -1 -8 -36 4 -24 11 -51 17 -60 5 -12 5 -18 -2 -18 -14 0 -13 -26 2 -50 9 -14 9 -24 1 -42 -25 -50 -25 -83 2 -133 30 -57 33 -105 8 -106 -11 0 -13 -3 -5 -6 17 -7 15 -16 -9 -42 -14 -15 -19 -31 -16 -49 3 -14 0 -37 -5 -51 -6 -15 -10 -39 -9 -55 1 -16 -3 -32 -9 -36 -6 -4 -12 -22 -12 -41 -1 -41 -8 -56 -18 -39 -5 7 -7 2 -7 -13 0 -17 4 -24 13 -20 9 3 14 -2 14 -16 0 -12 5 -21 10 -21 6 0 10 -11 10 -25 0 -14 7 -28 15 -31 14 -6 13 -8 -1 -19 -9 -6 -14 -17 -11 -22 4 -6 0 -14 -9 -17 -15 -6 -14 -9 1 -33 11 -16 14 -28 8 -30 -6 -2 -8 -13 -5 -25 4 -18 2 -20 -16 -16 -25 7 -45 -13 -36 -36 9 -24 54 -21 54 4 0 11 7 20 15 20 8 0 15 -8 15 -19 0 -10 9 -30 20 -44 11 -14 20 -33 20 -42 0 -22 31 -87 47 -100 8 -6 16 -22 18 -36 9 -47 30 -78 46 -68 21 13 39 11 33 -4 -2 -7 7 -24 21 -37 14 -13 25 -20 25 -16 0 5 11 1 25 -8 13 -9 34 -16 46 -16 12 0 19 -3 16 -6 -6 -6 5 -22 53 -81 5 -7 6 -14 1 -17 -5 -3 -11 -17 -13 -31 -6 -27 14 -51 47 -57 19 -3 20 4 26 112 10 183 10 342 0 378 -19 65 -8 516 13 551 4 6 2 11 -5 11 -7 0 -9 8 -4 23 4 12 8 48 9 79 1 31 8 63 15 72 7 8 10 19 7 24 -3 5 4 29 15 53 12 23 22 48 23 55 1 7 8 20 16 29 13 16 31 45 46 73 9 18 53 71 88 104 30 29 64 36 84 16 9 -9 13 -7 18 8 18 50 58 70 69 34 8 -25 50 -27 64 -2 6 9 11 12 11 5 0 -6 9 -9 21 -6 28 8 45 -18 48 -72 1 -30 26 -43 52 -26 16 10 19 8 19 -11 0 -12 3 -18 7 -15 3 4 12 -1 20 -11 12 -16 14 -16 27 1 7 9 22 17 34 17 11 0 22 7 26 15 3 8 10 15 16 15 7 0 8 -6 2 -17 -5 -10 -6 -27 -1 -38 4 -11 8 -16 8 -11 1 6 10 0 21 -12 23 -24 42 -29 35 -9 -3 6 4 26 15 42 14 21 20 25 20 13 0 -10 6 -18 14 -18 8 0 17 -14 21 -31 7 -29 9 -30 41 -24 31 5 34 4 34 -18 0 -16 8 -26 28 -34 l27 -10 -27 -11 c-16 -6 -28 -17 -28 -24 0 -10 3 -9 9 1 12 19 41 6 41 -19 0 -11 -4 -20 -9 -20 -5 0 -3 -14 6 -30 8 -17 16 -38 17 -46 1 -9 7 -19 14 -23 14 -9 34 -60 26 -72 -3 -5 0 -9 5 -9 6 0 11 -15 11 -34 0 -22 7 -40 18 -48 48 -36 107 -156 102 -208 -5 -48 0 -92 10 -105 10 -12 9 -20 -4 -40 -9 -13 -16 -34 -16 -45 0 -12 -4 -18 -10 -15 -6 3 -7 -1 -4 -10 4 -8 1 -21 -5 -29 -6 -7 -12 -25 -13 -40 -1 -14 -6 -26 -11 -26 -5 0 -7 12 -4 27 3 19 -2 37 -19 58 -13 18 -24 35 -24 38 0 7 -41 93 -71 147 l-19 35 -1 -40 c-4 -102 -3 -115 8 -119 8 -3 10 -22 6 -58 l-5 -53 42 -20 c23 -10 48 -28 56 -39 10 -15 14 -17 15 -6 1 8 5 -1 9 -20 6 -23 5 -40 -3 -48 -6 -8 -12 -44 -13 -80 -1 -37 -3 -71 -5 -77 -1 -5 4 -26 13 -45 23 -54 59 -228 52 -255 -3 -13 1 -43 10 -67 9 -24 18 -72 20 -108 1 -36 8 -75 14 -87 14 -25 64 -39 54 -15 -3 9 -1 13 5 9 5 -4 15 5 22 20 10 22 16 25 47 20 21 -4 43 -16 55 -31 15 -19 30 -26 55 -26 38 0 98 -22 109 -40 12 -20 7 -113 -7 -121 -9 -6 -15 0 -19 21 -12 54 -26 63 -94 56 -105 -12 -139 -11 -130 3 3 5 1 12 -4 15 -5 3 -12 -1 -15 -10 -5 -13 -9 -14 -20 -5 -17 14 -32 -2 -20 -21 4 -7 3 -8 -4 -4 -6 4 -19 -5 -28 -19 -9 -14 -21 -25 -28 -25 -15 -1 -56 -36 -56 -48 0 -5 11 -21 24 -35 27 -29 19 -42 -20 -33 -20 5 -23 10 -14 20 9 12 -3 21 -62 49 -122 58 -145 64 -176 46 -33 -18 -40 -60 -17 -95 19 -30 65 -32 90 -4 19 21 78 27 103 11 11 -6 8 -14 -11 -34 -13 -15 -27 -24 -30 -20 -4 3 -7 -1 -7 -10 0 -9 -7 -17 -15 -17 -8 0 -14 -6 -12 -12 1 -7 -8 -14 -20 -16 -13 -2 -23 -8 -23 -13 0 -5 -7 -9 -15 -9 -8 0 -15 -4 -15 -10 0 -5 -8 -7 -17 -4 -14 5 -15 4 -4 -4 15 -11 7 -32 -13 -32 -8 0 -19 -7 -26 -15 -7 -9 -15 -13 -18 -10 -3 3 -11 0 -19 -7 -11 -9 -13 -8 -11 3 2 8 -7 14 -22 16 -22 2 -22 1 -4 -5 13 -4 20 -14 18 -25 -1 -9 1 -15 5 -13 4 3 13 1 21 -5 12 -7 10 -9 -7 -9 -33 0 -72 -21 -78 -42 -4 -11 -16 -18 -31 -18 -14 0 -23 -4 -19 -10 3 -5 13 -6 23 -3 15 5 14 3 -3 -16 -11 -12 -21 -18 -23 -12 -2 6 -11 11 -19 11 -12 0 -13 3 -4 13 13 17 5 28 -15 20 -10 -3 -12 -13 -8 -27 4 -11 3 -18 -1 -14 -5 4 -14 3 -22 -3 -10 -9 -13 -7 -13 9 0 25 -16 37 -26 21 -5 -8 -3 -9 7 -4 8 5 10 4 6 0 -10 -11 -37 -16 -37 -6 0 3 7 17 17 30 l16 24 -34 -24 c-19 -13 -37 -28 -40 -32 -9 -12 -20 20 -13 37 3 8 -3 16 -15 19 -18 4 -19 2 -10 -15 8 -15 8 -23 -2 -32 -9 -8 -11 -7 -6 7 5 14 -5 23 -16 15 -2 -2 -11 5 -21 15 -10 10 -26 15 -36 12 -10 -3 -20 0 -23 9 -4 10 3 17 25 21 22 5 27 10 17 16 -7 4 -16 5 -19 1 -3 -5 -18 -9 -35 -10 -16 -1 -31 -7 -33 -12 -9 -24 -18 -7 -14 26 3 24 1 34 -6 30 -6 -3 -13 0 -15 6 -3 8 -6 6 -6 -4 -1 -10 -6 -18 -13 -18 -6 0 -8 3 -5 6 3 4 0 16 -8 28 -20 28 -19 48 4 68 17 14 20 15 25 1 8 -21 8 -23 -9 -23 -9 0 -12 -6 -8 -16 3 -9 8 -12 12 -5 7 10 24 9 54 -4 12 -5 24 -3 33 6 12 13 11 17 -8 33 -17 15 -20 15 -15 3 3 -9 2 -19 -3 -22 -6 -4 -10 1 -10 10 0 8 -8 19 -17 22 -10 4 -23 14 -30 22 -10 14 -12 14 -18 -1 -7 -19 -45 -25 -45 -8 0 6 -5 10 -11 10 -5 0 -7 -4 -4 -10 3 -5 1 -10 -5 -10 -6 0 -8 -5 -4 -11 4 -8 0 -8 -15 0 -11 7 -21 19 -21 28 0 9 -13 44 -29 77 -15 34 -38 86 -49 116 -11 30 -21 47 -21 37 -1 -15 -4 -15 -21 -5 -14 9 -19 21 -16 38 6 37 6 37 17 11 5 -13 12 -21 15 -18 12 12 -15 40 -40 43 -20 2 -25 0 -18 -9 5 -7 8 -30 8 -52 -1 -22 5 -49 14 -59 9 -11 10 -16 3 -12 -8 4 -13 1 -13 -7 0 -10 7 -13 20 -10 24 6 26 -3 5 -23 -8 -9 -15 -11 -15 -5 0 6 -7 11 -16 11 -8 0 -13 -4 -10 -9 4 -5 7 -28 8 -50 1 -30 6 -41 17 -41 14 0 14 -2 1 -10 -8 -5 -12 -10 -7 -11 4 -1 12 -3 17 -4 6 -1 17 -3 25 -4 22 -2 18 -18 -5 -24 -11 -3 -20 -13 -19 -24 0 -10 3 -13 6 -5 8 21 23 2 17 -23 -3 -12 -1 -26 5 -29 7 -4 8 -1 5 8 -3 9 -1 16 6 16 6 0 10 -10 9 -22 -2 -13 0 -29 4 -35 5 -8 3 -13 -4 -13 -7 0 -9 -3 -5 -7 4 -5 13 -8 19 -8 8 0 12 -19 12 -50 1 -35 5 -49 13 -47 10 2 10 -3 2 -18 -9 -16 -8 -22 4 -26 12 -5 13 -10 4 -24 -7 -10 -16 -16 -21 -13 -5 3 -7 -3 -5 -13 2 -11 10 -20 18 -20 32 -3 35 -5 22 -12 -17 -12 -4 -42 18 -42 30 0 49 -11 44 -25 -3 -7 1 -19 8 -26 8 -8 13 -26 11 -41 -1 -16 3 -28 9 -28 5 0 8 -7 4 -15 -3 -9 0 -15 10 -15 10 0 14 -6 10 -15 -5 -13 5 -19 25 -17 4 1 5 -8 2 -19 -4 -15 0 -22 16 -26 18 -5 19 -8 9 -21 -7 -9 -8 -13 -3 -10 6 3 16 0 23 -8 7 -8 9 -14 5 -14 -4 -1 4 -8 20 -16 15 -8 27 -19 27 -24 0 -6 8 -10 18 -10 16 -1 16 -1 0 -14 -20 -14 -25 -31 -7 -20 6 3 16 0 21 -7 8 -11 9 -10 4 4 -3 11 0 17 9 17 9 0 12 -8 10 -21 -2 -12 2 -28 10 -36 9 -8 13 -19 10 -24 -4 -5 0 -9 7 -10 7 0 4 -4 -7 -9 -11 -5 -14 -9 -7 -9 7 -1 10 -6 7 -11 -3 -6 4 -14 17 -19 13 -6 18 -10 12 -10 -6 -1 -10 -14 -9 -31 1 -16 -2 -27 -6 -25 -4 3 -9 -1 -12 -9 -3 -8 1 -17 9 -20 8 -3 13 -2 10 3 -3 5 1 11 9 15 10 3 15 -1 16 -12 0 -10 3 -12 6 -4 2 6 8 12 13 12 11 0 10 -60 -1 -82 -9 -17 14 -33 32 -22 5 3 9 -2 9 -10 0 -8 -8 -14 -19 -13 -11 0 -17 5 -15 9 3 4 0 8 -5 8 -6 0 -11 -7 -11 -15 0 -10 10 -15 27 -15 l26 0 -23 -20 c-13 -11 -18 -20 -12 -20 6 0 13 4 17 10 3 5 13 6 22 3 14 -6 14 -8 -3 -20 -12 -9 -13 -13 -4 -13 7 0 22 7 32 17 10 9 21 14 24 10 3 -3 -10 -16 -29 -29 -27 -18 -33 -27 -26 -43 5 -14 8 -16 9 -5 2 8 2 17 2 20 0 3 8 7 19 7 10 1 19 -2 19 -8 0 -5 -6 -9 -14 -9 -8 0 -13 -8 -12 -17 2 -10 -2 -25 -7 -34 -15 -24 -2 -48 22 -42 16 4 21 1 21 -16 0 -11 5 -21 10 -21 6 0 10 -9 10 -20 0 -11 -7 -20 -15 -20 -8 0 -15 -8 -15 -17 0 -16 -2 -15 -20 2 -11 11 -39 50 -62 87 -24 37 -68 102 -99 145 -97 135 -133 283 -94 392 18 52 2 53 -25 2 -21 -41 -32 -95 -31 -146 1 -23 -1 -27 -9 -15 -7 11 -10 3 -10 -31 0 -43 42 -149 62 -157 4 -2 8 -10 8 -18 0 -8 7 -14 15 -14 9 0 12 -6 9 -15 -4 -8 2 -32 11 -52 16 -33 19 -35 26 -18 8 22 12 13 9 -22 -2 -33 12 -51 21 -27 6 14 8 10 8 -17 1 -25 8 -41 21 -50 15 -11 23 -35 33 -99 7 -47 19 -95 25 -106 9 -18 9 -24 -4 -35 -12 -10 -12 -14 -2 -21 10 -8 10 -11 1 -15 -7 -2 -13 -9 -13 -14 0 -6 4 -7 10 -4 6 4 7 -23 3 -75 -4 -57 -3 -80 6 -80 7 0 11 23 11 64 0 36 4 67 9 70 14 9 12 118 -3 136 -7 8 -16 33 -19 55 -4 24 -3 35 2 26 5 -8 15 -11 23 -8 11 4 14 -1 11 -17 -3 -13 2 -28 11 -35 14 -11 16 -11 17 5 2 22 14 -36 35 -163 3 -18 10 -33 16 -33 5 0 -14 -23 -43 -51 l-54 -51 53 29 c30 15 64 38 75 50 29 30 41 29 57 -4 l13 -28 8 25 c6 22 7 20 8 -12 1 -23 9 -46 20 -57 10 -10 22 -28 26 -40 8 -26 22 -27 28 -3 2 9 4 1 3 -19 0 -35 25 -75 38 -62 3 4 6 -5 6 -18 0 -36 20 -53 37 -31 12 16 13 16 7 0 -6 -17 13 -18 305 -18 l311 0 -12 28 c-6 15 -12 84 -12 157 -1 118 1 133 20 157 12 15 24 25 27 22 3 -3 8 3 11 13 4 11 17 19 35 20 l30 2 -15 -34 c-18 -43 -18 -44 5 -38 17 4 18 -3 16 -129 -1 -73 -6 -148 -10 -165 l-8 -33 683 0 682 0 -7 28 c-3 16 -1 40 4 55 10 24 14 26 64 22 29 -2 65 -9 80 -16 21 -9 33 -9 52 -1 25 12 75 1 75 -15 0 -5 13 -14 28 -21 16 -6 38 -21 50 -32 18 -17 35 -20 107 -20 l85 0 0 298 0 297 -87 38 c-97 42 -468 169 -578 197 -421 110 -465 124 -693 230 -67 31 -92 48 -90 59 2 9 -2 21 -8 26 -9 7 -9 17 -2 35 6 14 12 46 13 72 2 47 23 84 60 106 14 8 16 11 5 12 -10 0 -15 11 -15 35 0 19 4 35 9 35 5 0 1 8 -8 19 -14 16 -15 19 -2 24 8 3 17 1 20 -6 2 -7 5 -4 5 6 1 9 -4 17 -10 17 -8 0 -7 5 1 15 11 13 15 13 22 3 6 -8 7 -4 2 12 -3 14 -10 30 -15 36 -12 15 13 64 33 64 11 0 15 5 12 15 -4 9 3 16 19 20 17 5 24 12 20 21 -3 8 3 17 13 21 31 11 65 41 55 47 -12 8 -6 43 10 62 10 12 9 13 -4 8 -12 -4 -14 -1 -10 15 3 12 12 21 20 21 14 0 12 36 -4 94 -4 13 -1 17 8 14 9 -4 14 2 15 16 1 30 7 49 22 64 7 8 10 17 7 22 -3 5 -1 11 5 15 15 9 12 28 -4 22 -11 -4 -13 3 -10 34 4 31 2 38 -10 33 -7 -3 -17 -1 -21 5 -3 6 1 11 9 11 9 0 16 7 16 15 0 8 5 15 11 15 6 0 3 7 -6 16 -8 9 -21 14 -29 11 -7 -3 -13 1 -13 8 0 17 29 14 44 -5 9 -11 12 -12 13 -2 0 23 -20 51 -33 46 -8 -3 -14 2 -14 11 0 17 23 20 33 4 5 -8 9 -7 15 4 11 19 1 47 -16 47 -8 0 -17 9 -20 21 -4 11 -13 18 -20 15 -9 -3 -11 2 -8 15 4 14 0 19 -13 19 -16 0 -17 2 -4 11 11 8 12 12 3 16 -18 7 -16 48 2 63 9 8 12 17 7 24 -5 6 -12 21 -14 33 -4 16 -2 20 8 16 8 -3 14 0 14 6 0 6 -12 16 -27 22 -26 10 -27 12 -8 19 19 7 19 8 2 15 -15 6 -17 14 -12 44 4 20 12 42 17 49 8 9 7 11 -6 6 -11 -4 -16 -1 -16 10 0 9 7 19 15 22 16 7 11 43 -6 55 -5 3 -6 20 -3 38 5 22 11 30 21 27 9 -4 13 -1 11 6 -2 6 4 20 14 30 23 23 23 50 -1 65 -16 10 -18 18 -11 43 5 16 7 30 4 30 -2 0 6 11 18 25 13 15 32 25 48 25 25 0 170 -60 197 -82 11 -9 72 -18 143 -22 39 -2 38 35 -1 65 -81 61 -98 77 -91 83 4 4 3 6 -3 5 -5 -2 -44 13 -85 33 -41 19 -83 38 -92 41 -10 4 -18 14 -18 22 0 9 4 14 9 10 5 -3 12 -1 16 5 3 5 15 10 25 10 10 0 25 9 33 20 8 11 17 17 21 13 3 -4 13 3 21 15 12 16 24 20 52 18 20 -1 41 -10 47 -19 8 -10 17 -13 27 -6 25 15 64 10 89 -13 16 -15 25 -18 28 -10 5 17 22 15 22 -2 0 -21 20 -30 33 -17 17 17 44 13 87 -14 22 -14 44 -25 49 -25 6 0 27 -11 47 -25 20 -14 55 -30 78 -37 23 -6 48 -17 56 -23 30 -24 106 -53 154 -60 27 -4 61 -16 77 -27 15 -11 32 -17 38 -14 24 15 -21 74 -81 109 -21 11 -38 27 -38 34 0 7 -8 13 -19 13 -48 0 -284 133 -301 170 -4 8 -12 25 -18 37 -7 13 -12 24 -12 26 0 2 67 3 148 3 130 0 152 2 182 20 43 25 52 61 18 68 -13 3 -66 7 -118 8 -52 2 -102 8 -110 13 -8 5 -27 8 -41 6 -16 -1 -34 5 -46 17 -10 10 -47 38 -83 62 -36 23 -76 53 -90 65 -14 12 -41 28 -60 35 -19 8 -55 30 -80 51 -25 20 -71 49 -102 64 -37 17 -58 34 -61 48 -3 12 -3 67 0 122 3 55 6 125 8 155 1 30 3 61 4 67 1 10 35 12 144 8 230 -8 309 -14 366 -25 29 -5 57 -7 62 -4 15 9 10 50 -9 67 -18 16 -107 39 -116 30 -2 -3 -9 5 -16 16 -8 15 -17 20 -33 16 -12 -3 -39 1 -59 10 -21 8 -66 15 -100 15 -35 0 -85 6 -113 13 -47 13 -49 14 -27 26 12 6 20 16 17 20 -8 15 46 29 134 36 62 5 101 14 145 35 34 16 80 33 104 39 45 10 74 35 69 61 -2 12 -19 15 -78 15 -65 0 -83 -4 -134 -32 -34 -18 -82 -34 -111 -37 l-52 -5 -6 38 -6 38 -62 -9 c-37 -6 -69 -17 -78 -27 -31 -35 -58 -41 -275 -57 -27 -2 -63 -9 -80 -14 l-30 -10 30 26 c17 14 55 44 85 67 30 22 83 69 118 104 34 35 69 63 77 63 8 0 15 5 15 10 0 18 2 25 12 43 5 11 7 29 4 42 -8 31 -42 28 -89 -8 -38 -29 -67 -42 -111 -52 -15 -3 -52 -28 -80 -55 l-53 -50 -13 25 c-10 18 -11 33 -4 51 11 29 115 163 128 163 5 1 46 33 92 72 68 58 84 76 84 99 0 15 -7 34 -16 41 -14 11 -21 10 -48 -5 -17 -11 -55 -32 -85 -48 -30 -16 -72 -44 -93 -63 -21 -19 -40 -35 -43 -35 -2 0 1 14 7 31 13 39 5 128 -13 140 -10 6 -11 11 -3 17 16 11 34 48 34 71 0 12 4 21 10 21 5 0 18 17 29 38 27 51 105 115 204 166 51 27 70 50 76 99 l6 42 80 13 c49 8 107 10 150 6 39 -4 106 -7 150 -8 74 -1 80 1 80 19 0 17 8 20 58 23 58 3 117 -13 117 -33 0 -5 5 -2 11 8 6 10 15 14 22 10 7 -4 32 -9 57 -10 25 -2 50 -10 56 -18 6 -7 24 -14 40 -13 16 0 34 -1 39 -2 6 -1 27 -2 48 -1 34 1 38 4 32 21 -5 14 -2 20 10 20 9 0 14 -4 10 -9 -3 -5 -1 -12 5 -16 7 -4 10 53 10 169 l0 176 -2250 0 -2250 0 0 -210z m155 120 c10 -11 16 -22 13 -25 -6 -7 -88 28 -88 38 0 16 58 6 75 -13z m3369 -195 c40 -30 -7 -45 -165 -52 -77 -3 -97 -1 -102 10 -10 26 10 39 69 47 101 13 177 11 198 -5z m-1724 -109 c0 -11 7 -30 15 -40 8 -11 15 -31 14 -45 0 -14 -3 -20 -6 -13 -2 6 -10 12 -17 12 -20 0 -45 33 -52 68 -4 18 -11 32 -16 32 -5 0 -7 4 -4 8 3 5 19 7 36 4 22 -3 30 -10 30 -26z m479 24 c26 3 60 3 74 -1 15 -4 27 -4 27 1 0 14 390 11 404 -3 10 -10 12 -70 7 -184 -1 -7 -9 -13 -20 -13 -10 0 -21 -9 -24 -20 -7 -28 -41 -25 -57 4 -14 28 -43 44 -33 20 7 -18 2 -18 -33 1 -19 9 -32 11 -38 5 -12 -12 -26 -13 -25 -2 3 19 -3 20 -35 7 -23 -10 -37 -11 -41 -5 -4 6 -21 8 -40 4 -37 -7 -105 11 -105 28 0 7 -12 8 -32 3 -18 -4 -48 -8 -66 -9 -37 -2 -46 15 -40 75 3 31 0 34 -24 37 -21 3 -28 9 -28 25 0 20 0 20 16 1 8 -10 12 -13 8 -5 -9 18 24 43 43 33 8 -5 35 -6 62 -2z m1151 -10 c0 -5 -4 -10 -8 -10 -4 0 -23 -16 -42 -35 -19 -19 -39 -35 -43 -35 -5 0 -23 -11 -40 -24 -18 -13 -55 -35 -83 -50 -64 -34 -143 -135 -172 -221 -33 -93 -46 -125 -53 -125 -3 0 -9 27 -12 60 -4 33 -13 70 -21 83 -8 12 -20 63 -27 112 -12 89 -12 91 15 143 15 30 30 52 33 48 3 -3 12 1 20 9 8 8 24 15 36 16 12 0 87 9 167 19 175 21 230 23 230 10z m-794 -227 c-7 -7 -26 7 -26 19 0 6 6 6 15 -2 9 -7 13 -15 11 -17z m-43 -207 c8 -19 -15 -37 -33 -26 -11 7 -11 11 -1 24 17 20 27 20 34 2z m492 -153 c-5 -15 -7 -34 -6 -40 1 -7 -3 -13 -9 -13 -13 0 -13 6 1 53 6 22 13 36 16 33 3 -3 2 -18 -2 -33z m-2508 -610 c-4 -3 -7 0 -7 7 0 7 3 10 7 7 3 -4 3 -10 0 -14z m740 -120 c-4 -3 -10 -3 -14 0 -3 4 0 7 7 7 7 0 10 -3 7 -7z m313 -109 c0 -8 -19 -13 -24 -6 -3 5 1 9 9 9 8 0 15 -2 15 -3z m1005 -334 c3 -5 16 -10 29 -10 29 0 35 -6 29 -31 -8 -27 -38 -23 -62 9 -20 26 -20 26 -21 5 0 -26 -15 -31 -24 -7 -10 25 -7 32 12 37 28 8 31 7 37 -3z m-52 -73 c-4 -7 0 -6 10 2 15 12 17 11 17 -7 0 -15 6 -20 23 -19 12 0 25 5 28 9 3 4 17 2 32 -5 27 -12 36 -40 16 -53 -8 -4 -7 -9 2 -15 9 -5 4 -10 -17 -15 -16 -4 -32 -12 -36 -17 -11 -18 -46 -15 -51 5 -3 12 -11 16 -21 12 -9 -3 -16 -1 -16 5 0 6 4 11 9 11 5 0 11 9 14 19 4 17 2 18 -14 8 -10 -6 -20 -23 -20 -37 -1 -17 -3 -19 -6 -7 -2 9 -9 17 -14 17 -5 0 -7 12 -4 28 5 23 4 24 -4 6 -14 -31 -31 -39 -31 -15 0 12 5 21 10 21 6 0 9 6 8 13 -2 7 6 11 20 9 16 -2 22 2 22 16 0 10 3 22 6 25 11 10 25 -3 17 -16z m877 -32 c19 -23 2 -37 -25 -19 -25 16 -25 34 -1 34 8 0 19 -7 26 -15z m-1193 -27 c-3 -8 -6 -5 -6 6 -1 11 2 17 5 13 3 -3 4 -12 1 -19z m310 -135 c-4 -3 -10 -3 -14 0 -3 4 0 7 7 7 7 0 10 -3 7 -7z m-55 -25 c-7 -7 -12 -8 -12 -2 0 14 12 26 19 19 2 -3 -1 -11 -7 -17z m468 -288 c0 -5 -8 -10 -17 -10 -13 0 -14 -3 -6 -8 10 -6 10 -12 -2 -28 -21 -28 -18 -41 4 -16 22 26 28 27 28 7 0 -8 -4 -15 -8 -15 -4 0 -6 -20 -6 -45 2 -46 -6 -57 -40 -50 -10 2 -35 7 -55 10 -29 4 -38 11 -38 25 0 11 5 20 10 20 6 0 10 7 8 16 -2 9 6 21 17 28 10 6 28 21 38 34 16 19 42 36 65 41 1 1 2 -3 2 -9z m-110 -190 c0 -12 -27 -12 -55 0 -16 7 -13 9 18 9 20 1 37 -3 37 -9z m-313 -7 c-4 -3 -10 -3 -14 0 -3 4 0 7 7 7 7 0 10 -3 7 -7z m-289 -79 c12 -10 23 -28 23 -39 1 -17 2 -17 6 -2 6 23 23 22 23 -2 0 -21 -19 -31 -59 -31 -39 0 -91 28 -85 44 3 8 1 17 -5 21 -14 8 -14 45 0 45 5 0 7 5 4 10 -3 6 -3 15 1 21 4 7 18 0 38 -19 17 -16 41 -38 54 -48z m867 10 c21 -143 22 -153 6 -159 -14 -6 -14 -7 0 -16 14 -7 17 -25 17 -94 0 -46 4 -90 8 -96 4 -7 8 -42 9 -79 1 -37 5 -72 9 -78 4 -6 1 -22 -6 -34 -11 -21 -12 -21 -16 -4 -4 17 -5 16 -18 -5 -7 -13 -16 -31 -20 -40 -5 -13 -10 -14 -30 -5 -13 6 -24 16 -24 23 0 7 -10 18 -22 24 -23 12 -23 12 -5 -9 20 -22 14 -47 -9 -38 -7 3 -16 1 -19 -4 -3 -5 7 -13 22 -16 17 -5 28 -3 31 4 2 7 8 10 13 6 5 -3 6 -11 2 -17 -8 -12 -10 -18 -12 -40 0 -7 -10 -18 -20 -24 -27 -17 -61 7 -42 30 10 13 9 19 -7 35 -14 14 -17 24 -10 35 7 13 5 15 -6 11 -23 -9 -28 14 -10 51 16 35 16 37 -5 56 -11 11 -21 29 -21 40 0 31 -50 110 -69 108 -34 -3 -42 2 -41 24 2 27 -10 67 -20 67 -16 0 4 51 23 62 l21 11 -22 8 c-19 7 -20 11 -11 39 13 35 35 50 77 50 36 0 63 26 38 36 -9 3 -16 13 -16 21 0 12 2 12 16 -1 18 -18 59 -22 48 -5 -4 8 1 9 16 4 16 -5 26 -1 36 14 9 12 21 21 28 21 7 0 18 12 25 27 11 23 14 25 22 12 4 -9 11 -34 14 -55z m-605 52 c0 -7 -63 -37 -68 -32 -2 3 9 11 25 20 28 15 43 19 43 12z m286 -31 c10 -8 29 -15 42 -15 l23 0 -27 -36 c-27 -35 -47 -47 -102 -60 -26 -7 -26 -6 -11 12 9 10 24 34 33 52 16 31 16 32 -4 32 -37 0 -23 20 21 29 3 0 14 -6 25 -14z m-226 -14 c0 -12 -8 -21 -20 -23 -19 -3 -18 -6 11 -41 36 -44 33 -54 -13 -41 -23 7 -34 17 -36 32 -2 12 -8 22 -14 22 -6 0 -6 6 2 15 7 8 9 15 4 15 -5 0 5 9 21 20 38 25 45 25 45 1z m80 -21 c0 -5 -4 -10 -10 -10 -5 0 -10 5 -10 10 0 6 5 10 10 10 6 0 10 -4 10 -10z m563 -40 c3 -11 1 -20 -4 -20 -5 0 -9 9 -9 20 0 11 2 20 4 20 2 0 6 -9 9 -20z m4 -36 c-3 -3 -12 -4 -19 -1 -8 3 -5 6 6 6 11 1 17 -2 13 -5z m-2292 -164 c3 -5 1 -10 -4 -10 -6 0 -11 5 -11 10 0 6 2 10 4 10 3 0 8 -4 11 -10z m1436 -1 c11 -5 18 -13 16 -17 -4 -7 28 -42 38 -42 3 0 12 0 20 0 8 0 15 -8 15 -18 0 -10 5 -23 11 -29 6 -6 10 -32 8 -57 -3 -25 0 -46 4 -46 5 0 7 -7 3 -15 -6 -17 2 -45 14 -45 4 0 12 10 18 23 11 22 11 22 11 -5 1 -14 -5 -29 -11 -32 -10 -3 -9 -8 2 -18 8 -7 14 -23 12 -35 -4 -27 -22 -31 -22 -5 -1 12 -5 9 -16 -10 -8 -16 -17 -28 -20 -28 -15 0 -134 131 -134 147 0 10 -6 25 -12 31 -10 10 -10 17 -1 31 10 15 9 22 -3 31 -10 10 -11 16 -3 26 6 7 8 17 5 23 -3 5 0 12 6 15 8 4 9 8 3 11 -13 6 -7 75 7 75 5 0 18 -5 29 -11z m439 -69 c0 -5 -5 -10 -11 -10 -5 0 -7 5 -4 10 3 6 8 10 11 10 2 0 4 -4 4 -10z m-293 -126 c-3 -3 -12 -4 -19 -1 -8 3 -5 6 6 6 11 1 17 -2 13 -5z m720 -11 c-4 -3 -10 -3 -14 0 -3 4 0 7 7 7 7 0 10 -3 7 -7z m-570 -140 c-4 -3 -7 0 -7 7 0 7 3 10 7 7 3 -4 3 -10 0 -14z m167 11 c9 -3 16 -12 16 -19 0 -7 5 -15 11 -17 9 -3 8 -11 -2 -28 -14 -27 -13 -47 4 -68 8 -11 12 -11 19 0 7 10 9 10 5 -2 -2 -8 -13 -14 -23 -13 -10 1 -13 0 -6 -3 17 -8 15 -24 -4 -24 -8 0 -12 -5 -9 -10 5 -8 11 -7 20 0 9 7 23 9 37 4 13 -4 28 -7 35 -6 6 2 14 -2 18 -8 3 -5 -1 -10 -10 -10 -9 0 -13 -5 -10 -10 4 -6 15 -8 26 -5 11 4 19 2 19 -4 0 -6 -10 -11 -22 -12 -13 0 -34 -2 -48 -4 -19 -2 -38 8 -74 42 -43 40 -51 44 -72 34 -20 -9 -24 -8 -24 5 0 11 -6 15 -20 11 -16 -4 -20 0 -20 21 0 22 2 24 11 12 8 -12 10 -10 5 9 -7 35 11 63 35 56 13 -4 21 -1 26 12 4 10 14 23 22 30 19 15 16 14 35 7z m113 -81 c-4 -3 -7 0 -7 7 0 7 3 10 7 7 3 -4 3 -10 0 -14z m370 -10 c-4 -3 -10 -3 -14 0 -3 4 0 7 7 7 7 0 10 -3 7 -7z m-375 -45 c-11 -11 -32 -3 -32 12 0 4 9 6 21 3 13 -4 17 -9 11 -15z m-156 -52 c3 -8 14 -16 25 -19 10 -3 19 -10 19 -16 0 -15 -33 -14 -48 1 -9 9 -12 8 -12 -5 0 -10 8 -17 19 -17 42 0 48 -9 45 -65 -2 -56 -20 -74 -18 -20 0 17 -7 36 -15 42 -14 11 -14 14 -1 23 13 8 13 10 -2 10 -10 0 -18 -4 -18 -10 0 -5 -5 -10 -12 -10 -6 0 -8 3 -5 6 3 4 2 15 -4 25 -11 21 -2 69 12 69 5 0 12 -6 15 -14z m108 -95 c-6 -6 -34 20 -34 32 0 6 8 2 19 -9 10 -10 17 -21 15 -23z m-247 -18 c-4 -3 -10 -3 -14 0 -3 4 0 7 7 7 7 0 10 -3 7 -7z m651 -46 c2 -9 -2 -17 -8 -17 -7 0 -10 6 -7 14 3 8 2 17 -4 20 -5 2 -4 3 3 2 7 -1 14 -10 16 -19z m-615 -20 c31 -4 31 -4 -5 -5 -34 -2 -38 1 -37 21 1 15 3 17 6 5 2 -10 17 -18 36 -21z m-810 -155 c-4 -15 -53 -31 -53 -17 0 3 47 32 57 35 0 0 -1 -8 -4 -18z m54 11 c-4 -3 -10 -3 -14 0 -3 4 0 7 7 7 7 0 10 -3 7 -7z m-660 -40 c-4 -3 -7 0 -7 7 0 7 3 10 7 7 3 -4 3 -10 0 -14z m-90 -10 c-4 -3 -7 0 -7 7 0 7 3 10 7 7 3 -4 3 -10 0 -14z m650 -10 c-4 -3 -10 -3 -14 0 -3 4 0 7 7 7 7 0 10 -3 7 -7z m38 -13 c3 -5 1 -10 -4 -10 -6 0 -11 5 -11 10 0 6 2 10 4 10 3 0 8 -4 11 -10z m-648 -37 c-4 -3 -7 0 -7 7 0 7 3 10 7 7 3 -4 3 -10 0 -14z m518 7 c3 -5 1 -10 -4 -10 -6 0 -11 5 -11 10 0 6 2 10 4 10 3 0 8 -4 11 -10z m-318 -37 c-4 -3 -7 0 -7 7 0 7 3 10 7 7 3 -4 3 -10 0 -14z m313 -9 c0 -23 -2 -24 -15 -10 -8 8 -15 19 -15 25 0 6 7 11 15 11 9 0 15 -10 15 -26z m17 4 c-3 -8 -6 -5 -6 6 -1 11 2 17 5 13 3 -3 4 -12 1 -19z m-240 -15 c-4 -3 -7 0 -7 7 0 7 3 10 7 7 3 -4 3 -10 0 -14z m-49 -12 c11 -7 10 -9 -3 -14 -9 -4 -14 -3 -10 2 3 5 -1 12 -7 14 -7 3 -8 6 -3 6 6 0 16 -3 23 -8z m1779 -8 c-4 -3 -7 0 -7 7 0 7 3 10 7 7 3 -4 3 -10 0 -14z m-1319 -46 c5 -24 -15 -21 -21 4 -3 13 -1 19 6 16 7 -2 13 -11 15 -20z m-781 -24 c-4 -3 -7 0 -7 7 0 7 3 10 7 7 3 -4 3 -10 0 -14z m593 13 c0 -3 -5 -8 -12 -12 -7 -4 -8 -3 -4 4 7 12 16 16 16 8z m-163 -73 c-4 -3 -7 0 -7 7 0 7 3 10 7 7 3 -4 3 -10 0 -14z m1011 -88 c-3 -3 -9 2 -12 12 -6 14 -5 15 5 6 7 -7 10 -15 7 -18z m-738 -2 c9 -17 11 -17 21 0 10 18 12 18 26 -3 9 -13 19 -18 25 -12 13 13 85 -8 184 -55 28 -13 58 -21 67 -17 26 10 44 -39 27 -71 -8 -14 -16 -22 -19 -17 -14 18 -36 5 -42 -25 -5 -28 -4 -33 12 -33 11 0 19 5 19 11 0 6 7 4 15 -5 19 -19 19 -37 1 -30 -8 3 -27 -5 -42 -19 -14 -13 -42 -29 -63 -34 -52 -14 -150 -10 -160 6 -6 10 -11 9 -24 -3 -8 -9 -17 -21 -19 -28 -3 -9 -11 -8 -31 5 -15 10 -33 17 -40 16 -31 -4 -39 2 -34 23 4 14 0 29 -10 40 -18 20 -37 51 -53 88 -9 20 -8 27 4 36 14 10 14 14 -4 37 -13 16 -17 28 -10 32 6 4 8 15 5 26 -8 24 2 24 43 -1 27 -16 37 -18 48 -9 11 9 11 15 3 25 -6 7 -8 18 -4 24 10 16 43 12 55 -7z m718 -1 c2 -7 -3 -12 -12 -12 -9 0 -16 7 -16 16 0 17 22 14 28 -4z m-30 -22 c3 -9 -1 -11 -12 -7 -9 4 -16 2 -16 -3 0 -6 -6 -10 -14 -10 -9 0 -12 7 -9 18 5 21 44 23 51 2z m109 -57 c-4 -3 -7 0 -7 7 0 7 3 10 7 7 3 -4 3 -10 0 -14z m-359 -15 c2 -4 12 -8 23 -8 10 0 19 -7 19 -15 0 -8 -4 -15 -10 -15 -5 0 -10 -7 -10 -16 0 -10 -6 -14 -15 -10 -8 3 -15 1 -15 -5 0 -6 -6 -9 -14 -6 -10 4 -20 -7 -30 -31 l-15 -37 0 60 c-1 89 6 106 38 98 14 -3 28 -10 29 -15z m792 -37 c0 -6 -4 -13 -10 -16 -5 -3 -10 1 -10 9 0 9 5 16 10 16 6 0 10 -4 10 -9z m-24 -25 c18 -19 18 -23 -3 -35 -15 -8 -18 -5 -18 20 0 33 1 34 21 15z m-1336 -50 c0 -3 -4 -8 -10 -11 -5 -3 -10 -1 -10 4 0 6 5 11 10 11 6 0 10 -2 10 -4z m36 -79 c-2 -7 -5 -4 -5 6 -1 9 -6 17 -12 17 -5 0 -7 5 -3 11 9 15 28 -16 20 -34z m281 -94 c-4 -3 -10 -3 -14 0 -3 4 0 7 7 7 7 0 10 -3 7 -7z m-760 -150 c-4 -3 -10 -3 -14 0 -3 4 0 7 7 7 7 0 10 -3 7 -7z m0 -50 c-4 -3 -7 0 -7 7 0 7 3 10 7 7 3 -4 3 -10 0 -14z m248 7 c3 -5 1 -10 -4 -10 -6 0 -11 5 -11 10 0 6 2 10 4 10 3 0 8 -4 11 -10z m-228 -27 c-4 -3 -7 0 -7 7 0 7 3 10 7 7 3 -4 3 -10 0 -14z m1824 -101 c6 -8 9 -29 6 -48 -3 -20 -2 -34 4 -34 6 0 8 -4 5 -9 -3 -4 0 -22 6 -38 9 -24 8 -34 -4 -52 -15 -21 -15 -20 -22 25 -3 26 -10 52 -15 58 -10 12 -31 106 -31 138 0 20 1 20 20 -3 11 -13 25 -30 31 -37z m16 26 c-3 -8 -6 -5 -6 6 -1 11 2 17 5 13 3 -3 4 -12 1 -19z m-88 -132 c-5 -6 -9 -18 -9 -28 0 -22 -8 -23 -32 -1 -25 22 -23 69 5 102 l22 28 11 -46 c6 -26 7 -50 3 -55z m-1474 14 c3 -5 1 -10 -4 -10 -6 0 -11 5 -11 10 0 6 2 10 4 10 3 0 8 -4 11 -10z m22 -7 c-4 -3 -7 0 -7 7 0 7 3 10 7 7 3 -4 3 -10 0 -14z m220 -19 c-3 -3 -12 -4 -19 -1 -8 3 -5 6 6 6 11 1 17 -2 13 -5z m1227 -76 c-4 -6 -10 -5 -15 3 -14 22 -10 33 6 19 8 -7 12 -17 9 -22z m-1398 -55 c-3 -7 1 -13 9 -13 17 0 55 -35 55 -50 0 -5 -6 -10 -13 -10 -18 0 -49 34 -40 43 5 6 -9 11 -27 9 -3 0 -6 7 -7 17 -1 10 5 18 13 18 8 0 13 -6 10 -14z m-119 -10 c-4 -3 -10 -3 -14 0 -3 4 0 7 7 7 7 0 10 -3 7 -7z m392 -39 c14 -12 -19 -1 -35 12 -18 14 -18 14 6 3 14 -6 27 -13 29 -15z m-149 -74 c0 -5 -5 -10 -11 -10 -5 0 -7 5 -4 10 3 6 8 10 11 10 2 0 4 -4 4 -10z m1867 -101 c-6 -67 -18 -87 -57 -91 -23 -3 -25 0 -24 37 1 22 8 57 17 78 13 30 21 37 43 37 27 0 27 0 21 -61z m-2000 14 c-3 -10 -5 -4 -5 12 0 17 2 24 5 18 2 -7 2 -21 0 -30z m80 -20 c-4 -3 -7 0 -7 7 0 7 3 10 7 7 3 -4 3 -10 0 -14z m240 10 c-4 -3 -10 -3 -14 0 -3 4 0 7 7 7 7 0 10 -3 7 -7z m90 -10 c-4 -3 -7 0 -7 7 0 7 3 10 7 7 3 -4 3 -10 0 -14z m-77 -13 c0 -5 -4 -10 -10 -10 -5 0 -10 5 -10 10 0 6 5 10 10 10 6 0 10 -4 10 -10z m38 -22 c-14 -20 -28 -27 -28 -13 0 3 0 12 0 20 0 9 9 15 21 15 20 0 20 -2 7 -22z m-63 2 c3 -5 4 -10 1 -10 -3 0 -8 5 -11 10 -3 6 -4 10 -1 10 3 0 8 -4 11 -10z m140 -29 c11 -14 20 -31 21 -38 1 -7 12 -24 23 -39 12 -15 21 -34 21 -43 0 -10 5 -22 12 -29 9 -9 9 -12 -3 -12 -8 0 -22 8 -30 18 -9 9 -31 25 -49 35 -21 11 -30 22 -26 32 3 9 0 15 -9 15 -22 0 -27 17 -15 60 12 44 21 44 55 1z m-319 9 c8 0 14 -4 14 -10 0 -5 -4 -10 -8 -10 -12 0 -32 22 -31 35 0 5 3 4 6 -2 2 -7 11 -13 19 -13z m51 -37 c-4 -3 -10 -3 -14 0 -3 4 0 7 7 7 7 0 10 -3 7 -7z m14 -69 c-10 -18 -10 -17 -11 4 0 12 -5 22 -11 22 -5 0 -7 5 -3 11 4 7 11 6 21 -4 12 -11 13 -19 4 -33z m-64 29 c-4 -3 -10 -3 -14 0 -3 4 0 7 7 7 7 0 10 -3 7 -7z m93 -38 c0 -8 -4 -15 -10 -15 -5 0 -10 7 -10 15 0 8 5 15 10 15 6 0 10 -7 10 -15z m-20 -75 c0 -5 -2 -10 -4 -10 -3 0 -8 5 -11 10 -3 6 -1 10 4 10 6 0 11 -4 11 -10z"/> <path d="M2272 5538 c12 -10 24 -18 28 -18 7 0 20 24 20 35 0 2 -15 3 -34 2 -34 -1 -34 -1 -14 -19z"/> <path d="M2643 3733 c4 -3 10 -3 14 0 3 4 0 7 -7 7 -7 0 -10 -3 -7 -7z"/> <path d="M2613 3723 c4 -3 10 -3 14 0 3 4 0 7 -7 7 -7 0 -10 -3 -7 -7z"/> <path d="M3016 2897 c-17 -62 -3 -79 48 -56 26 12 46 55 21 45 -8 -3 -18 1 -22 8 -15 24 -41 26 -47 3z"/> <path d="M2993 2805 c-8 -23 3 -29 26 -13 21 15 18 28 -6 28 -7 0 -16 -7 -20 -15z"/> <path d="M2455 2640 c-3 -5 1 -10 9 -10 9 0 16 5 16 10 0 6 -4 10 -9 10 -6 0 -13 -4 -16 -10z"/> <path d="M2770 2290 c0 -5 5 -10 10 -10 6 0 10 5 10 10 0 6 -4 10 -10 10 -5 0 -10 -4 -10 -10z"/> <path d="M1790 1221 c0 -6 5 -13 10 -16 6 -3 10 1 10 9 0 9 -4 16 -10 16 -5 0 -10 -4 -10 -9z"/> <path d="M4480 5629 c0 -5 5 -7 10 -4 6 3 10 8 10 11 0 2 -4 4 -10 4 -5 0 -10 -5 -10 -11z"/> <path d="M4280 5580 c0 -7 3 -10 7 -7 3 4 3 10 0 14 -4 3 -7 0 -7 -7z"/> <path d="M1263 5533 c4 -3 10 -3 14 0 3 4 0 7 -7 7 -7 0 -10 -3 -7 -7z"/> <path d="M1398 4253 c7 -3 16 -2 19 1 4 3 -2 6 -13 5 -11 0 -14 -3 -6 -6z"/> <path d="M1810 4120 c20 -13 33 -13 25 0 -3 6 -14 10 -23 10 -15 0 -15 -2 -2 -10z"/> <path d="M1725 4100 c3 -5 8 -10 11 -10 3 0 2 5 -1 10 -3 6 -8 10 -11 10 -3 0 -2 -4 1 -10z"/> <path d="M1573 4083 c4 -3 10 -3 14 0 3 4 0 7 -7 7 -7 0 -10 -3 -7 -7z"/> <path d="M1625 4080 c3 -5 8 -10 11 -10 2 0 4 5 4 10 0 6 -5 10 -11 10 -5 0 -7 -4 -4 -10z"/> <path d="M1830 4060 c0 -7 3 -10 7 -7 3 4 3 10 0 14 -4 3 -7 0 -7 -7z"/> <path d="M1636 4036 c3 -9 11 -16 16 -16 13 0 5 23 -10 28 -7 2 -10 -2 -6 -12z"/> <path d="M1965 3510 c3 -5 8 -10 11 -10 3 0 2 5 -1 10 -3 6 -8 10 -11 10 -3 0 -2 -4 1 -10z"/> <path d="M1488 3304 c-7 -7 -33 -15 -58 -17 -25 -3 -44 -9 -43 -14 1 -5 -7 -15 -19 -22 -18 -11 -19 -10 -13 8 11 35 -12 32 -29 -4 -9 -19 -20 -35 -24 -35 -19 -1 -42 -29 -36 -44 6 -15 7 -15 20 1 12 17 13 16 7 -4 -5 -22 -2 -23 48 -24 142 -2 134 0 131 -41 -3 -31 0 -38 15 -39 10 0 -11 -7 -47 -15 -86 -18 -166 -49 -214 -82 -43 -29 -83 -78 -74 -88 14 -13 44 8 63 43 22 41 99 87 168 99 32 5 37 4 37 -13 0 -14 -15 -26 -50 -41 -28 -12 -55 -22 -60 -22 -6 0 -10 -4 -10 -10 0 -5 -6 -10 -13 -10 -8 0 -22 -9 -32 -20 -10 -11 -24 -20 -30 -20 -7 0 -15 -7 -19 -15 -9 -25 39 -18 73 11 34 28 130 69 139 59 4 -3 0 -10 -8 -15 -13 -9 -13 -10 0 -11 10 0 7 -4 -7 -11 -22 -10 -22 -12 -6 -39 9 -15 27 -33 40 -40 16 -9 20 -16 13 -24 -8 -9 -5 -12 11 -11 16 1 23 -6 26 -23 4 -31 23 -53 38 -47 7 2 18 0 25 -4 11 -7 11 -11 1 -24 -15 -18 -15 -18 45 -18 32 -1 98 36 133 74 12 12 21 35 21 51 0 22 4 28 16 23 13 -5 14 -1 9 24 -7 30 7 42 21 19 10 -17 24 12 18 37 -3 12 -1 25 4 28 16 10 1 89 -21 108 -13 12 -18 26 -15 43 3 14 1 25 -3 25 -5 0 -9 -8 -9 -17 0 -11 -3 -14 -8 -7 -4 6 -15 13 -24 17 -11 4 -18 17 -18 32 0 20 5 25 25 25 32 0 88 28 80 40 -3 5 -1 11 5 15 5 3 10 24 10 46 0 22 -4 38 -9 35 -5 -4 -11 -1 -13 4 -2 6 -19 3 -43 -9 -38 -19 -41 -19 -55 -2 -19 22 -61 31 -105 21 -19 -4 -52 -4 -74 0 -27 5 -44 3 -53 -6z m22 -399 c0 -2 -7 -5 -15 -9 -9 -3 -15 0 -15 9 0 9 6 12 15 9 8 -4 15 -7 15 -9z"/> <path d="M1274 3228 l-19 -21 28 18 c28 18 33 25 19 25 -5 0 -17 -10 -28 -22z"/> <path d="M1233 3223 c4 -3 10 -3 14 0 3 4 0 7 -7 7 -7 0 -10 -3 -7 -7z"/> <path d="M1450 3130 c0 -7 3 -10 7 -7 3 4 3 10 0 14 -4 3 -7 0 -7 -7z"/> <path d="M954 2636 c-8 -21 -1 -49 14 -54 8 -2 12 8 12 32 0 36 -16 49 -26 22z"/> <path d="M3291 2474 c0 -11 3 -14 6 -6 3 7 2 16 -1 19 -3 4 -6 -2 -5 -13z"/> <path d="M975 2409 c-4 -6 -5 -12 -2 -15 2 -3 7 2 10 11 7 17 1 20 -8 4z"/> <path d="M995 2390 c3 -5 8 -10 11 -10 2 0 4 5 4 10 0 6 -5 10 -11 10 -5 0 -7 -4 -4 -10z"/> <path d="M2290 2380 c0 -7 3 -10 7 -7 3 4 3 10 0 14 -4 3 -7 0 -7 -7z"/> <path d="M970 2080 c0 -5 5 -10 11 -10 5 0 7 5 4 10 -3 6 -8 10 -11 10 -2 0 -4 -4 -4 -10z"/> <path d="M1411 1964 c0 -11 3 -14 6 -6 3 7 2 16 -1 19 -3 4 -6 -2 -5 -13z"/> <path d="M3331 1944 c0 -11 3 -14 6 -6 3 7 2 16 -1 19 -3 4 -6 -2 -5 -13z"/> <path d="M1330 1920 c-20 -12 -5 -24 16 -12 9 5 12 12 7 15 -5 3 -15 2 -23 -3z"/> <path d="M4161 1888 c13 -24 29 -23 29 1 0 13 -6 19 -19 18 -16 -1 -18 -5 -10 -19z"/> <path d="M3117 1415 c-4 -8 -2 -17 3 -20 6 -4 10 3 10 14 0 25 -6 27 -13 6z"/> <path d="M1254 1348 c-4 -7 -3 -8 4 -4 7 4 12 9 12 12 0 8 -9 4 -16 -8z"/> <path d="M4195 1282 c-6 -6 4 -22 15 -22 4 0 10 6 13 13 5 13 -17 20 -28 9z"/> <path d="M3065 1203 c1 -10 7 -29 12 -42 8 -19 11 -21 16 -8 3 8 0 18 -8 21 -8 3 -11 13 -8 25 3 12 1 21 -4 21 -5 0 -9 -8 -8 -17z"/> <path d="M1452 966 c-1 -15 1 -17 7 -8 4 8 15 12 22 10 8 -2 17 2 19 7 3 6 -6 10 -21 10 -18 1 -25 -5 -27 -19z"/> <path d="M966 724 c-8 -8 -17 -14 -21 -14 -3 0 -20 -15 -38 -33 -18 -17 -40 -31 -49 -29 -9 2 -30 -14 -49 -37 -21 -27 -40 -41 -55 -41 -29 0 -54 -36 -64 -92 -8 -42 2 -75 27 -91 6 -4 31 -25 55 -48 40 -37 143 -96 228 -129 19 -8 37 -17 40 -20 3 -4 37 -17 75 -30 39 -12 74 -26 80 -31 5 -5 15 -9 23 -9 7 0 19 -6 26 -13 8 -6 23 -19 35 -27 11 -8 21 -22 21 -32 0 -11 7 -18 20 -18 15 0 20 7 20 25 0 20 5 25 26 25 14 0 23 -4 19 -9 -3 -5 0 -13 6 -17 8 -4 9 -3 5 4 -4 7 -1 12 8 12 8 0 17 -4 20 -9 3 -5 15 -7 26 -4 20 5 24 -3 21 -38 -2 -14 11 -17 80 -18 l82 -2 -46 44 c-25 24 -71 53 -104 66 -32 12 -67 26 -78 31 -42 17 -115 32 -130 27 -8 -4 -15 -3 -15 2 0 5 -12 12 -27 16 -50 12 -109 55 -144 102 -31 44 -34 54 -33 118 0 43 7 88 18 115 13 34 16 58 11 105 -7 60 -22 102 -32 91 -4 -3 -12 -1 -19 4 -20 18 -53 20 -68 4z"/> <path d="M529 179 c-17 -15 -34 -19 -59 -16 -38 4 -70 -20 -70 -54 0 -29 -22 -68 -41 -74 -9 -3 -23 -12 -29 -20 -11 -13 14 -15 194 -15 167 0 206 3 206 14 0 12 -50 110 -75 147 -12 17 -59 39 -84 39 -10 0 -29 -9 -42 -21z"/> <path d="M0 75 c0 -19 4 -23 18 -18 36 13 37 43 1 43 -14 0 -19 -7 -19 -25z"/> <path d="M1753 3 c4 -3 10 -3 14 0 3 4 0 7 -7 7 -7 0 -10 -3 -7 -7z"/> </g> </svg> 